<mxfile host="app.diagrams.net" modified="2022-05-10T21:34:24.020Z" agent="5.0 (Macintosh; Intel Mac OS X 10_15_7) AppleWebKit/605.1.15 (KHTML, like Gecko) Version/15.3 Safari/605.1.15" etag="MvJdBZ0ehhhLFlVf3vQC" version="17.5.0" type="github">
  <diagram id="RT0LNEhjmAs4hNQUCreP" name="Page-1">
    <mxGraphModel dx="851" dy="568" grid="1" gridSize="10" guides="1" tooltips="1" connect="1" arrows="1" fold="1" page="1" pageScale="1" pageWidth="850" pageHeight="1100" math="0" shadow="0">
      <root>
        <mxCell id="0" />
        <mxCell id="1" parent="0" />
        <mxCell id="L3yQXywGLFafgFnH2-L4-122" value="" style="rounded=0;whiteSpace=wrap;html=1;" parent="1" vertex="1">
          <mxGeometry x="40" y="100" width="1200" height="440" as="geometry" />
        </mxCell>
        <mxCell id="L3yQXywGLFafgFnH2-L4-118" value="Datapath Controller" style="rounded=0;whiteSpace=wrap;html=1;verticalAlign=top;" parent="1" vertex="1">
          <mxGeometry x="840" y="410" width="340" height="90" as="geometry" />
        </mxCell>
        <mxCell id="L3yQXywGLFafgFnH2-L4-89" value="" style="rounded=0;whiteSpace=wrap;html=1;verticalAlign=top;" parent="1" vertex="1">
          <mxGeometry x="840" y="210" width="340" height="190" as="geometry" />
        </mxCell>
        <mxCell id="L3yQXywGLFafgFnH2-L4-88" value="" style="rounded=0;whiteSpace=wrap;html=1;verticalAlign=top;" parent="1" vertex="1">
          <mxGeometry x="70" y="210" width="760" height="290" as="geometry" />
        </mxCell>
        <mxCell id="L3yQXywGLFafgFnH2-L4-111" style="edgeStyle=orthogonalEdgeStyle;curved=1;rounded=0;orthogonalLoop=1;jettySize=auto;html=1;entryX=0.5;entryY=0;entryDx=0;entryDy=0;startArrow=classicThin;startFill=1;endArrow=classicThin;endFill=1;" parent="1" source="L3yQXywGLFafgFnH2-L4-1" target="L3yQXywGLFafgFnH2-L4-9" edge="1">
          <mxGeometry relative="1" as="geometry" />
        </mxCell>
        <mxCell id="L3yQXywGLFafgFnH2-L4-1" value="Central Config Controller" style="rounded=0;whiteSpace=wrap;html=1;" parent="1" vertex="1">
          <mxGeometry x="460" y="40" width="120" height="40" as="geometry" />
        </mxCell>
        <mxCell id="L3yQXywGLFafgFnH2-L4-2" value="VN&amp;nbsp;Task" style="rounded=0;whiteSpace=wrap;html=1;verticalAlign=top;" parent="1" vertex="1">
          <mxGeometry x="80" y="260" width="240" height="140" as="geometry" />
        </mxCell>
        <mxCell id="L3yQXywGLFafgFnH2-L4-38" style="edgeStyle=orthogonalEdgeStyle;curved=1;rounded=0;orthogonalLoop=1;jettySize=auto;html=1;startArrow=none;startFill=0;endArrow=classicThin;endFill=1;" parent="1" source="L3yQXywGLFafgFnH2-L4-4" target="L3yQXywGLFafgFnH2-L4-37" edge="1">
          <mxGeometry relative="1" as="geometry" />
        </mxCell>
        <mxCell id="L3yQXywGLFafgFnH2-L4-4" value="DB" style="rounded=0;whiteSpace=wrap;html=1;" parent="1" vertex="1">
          <mxGeometry x="180" y="370" width="40" height="20" as="geometry" />
        </mxCell>
        <mxCell id="L3yQXywGLFafgFnH2-L4-109" style="edgeStyle=orthogonalEdgeStyle;curved=1;rounded=0;orthogonalLoop=1;jettySize=auto;html=1;entryX=0.594;entryY=-0.011;entryDx=0;entryDy=0;entryPerimeter=0;startArrow=classicThin;startFill=1;endArrow=classicThin;endFill=1;" parent="1" source="L3yQXywGLFafgFnH2-L4-9" target="L3yQXywGLFafgFnH2-L4-90" edge="1">
          <mxGeometry relative="1" as="geometry" />
        </mxCell>
        <mxCell id="L3yQXywGLFafgFnH2-L4-9" value="Config GRPC Client" style="rounded=0;whiteSpace=wrap;html=1;" parent="1" vertex="1">
          <mxGeometry x="450" y="140" width="140" height="40" as="geometry" />
        </mxCell>
        <mxCell id="L3yQXywGLFafgFnH2-L4-33" style="edgeStyle=orthogonalEdgeStyle;curved=1;rounded=0;orthogonalLoop=1;jettySize=auto;html=1;exitX=0;exitY=0.5;exitDx=0;exitDy=0;entryX=0.5;entryY=0;entryDx=0;entryDy=0;startArrow=none;startFill=0;endArrow=classicThin;endFill=1;" parent="1" source="L3yQXywGLFafgFnH2-L4-12" target="L3yQXywGLFafgFnH2-L4-4" edge="1">
          <mxGeometry relative="1" as="geometry">
            <Array as="points">
              <mxPoint x="90" y="295" />
              <mxPoint x="90" y="360" />
              <mxPoint x="200" y="360" />
            </Array>
          </mxGeometry>
        </mxCell>
        <mxCell id="L3yQXywGLFafgFnH2-L4-12" value="thread vn1" style="rounded=1;whiteSpace=wrap;html=1;" parent="1" vertex="1">
          <mxGeometry x="120" y="285" width="70" height="20" as="geometry" />
        </mxCell>
        <mxCell id="L3yQXywGLFafgFnH2-L4-34" style="edgeStyle=orthogonalEdgeStyle;curved=1;rounded=0;orthogonalLoop=1;jettySize=auto;html=1;exitX=0;exitY=0.5;exitDx=0;exitDy=0;entryX=0.5;entryY=0;entryDx=0;entryDy=0;startArrow=none;startFill=0;endArrow=classicThin;endFill=1;" parent="1" source="L3yQXywGLFafgFnH2-L4-23" target="L3yQXywGLFafgFnH2-L4-4" edge="1">
          <mxGeometry relative="1" as="geometry">
            <Array as="points">
              <mxPoint x="100" y="315" />
              <mxPoint x="100" y="360" />
              <mxPoint x="200" y="360" />
            </Array>
          </mxGeometry>
        </mxCell>
        <mxCell id="L3yQXywGLFafgFnH2-L4-23" value="thread vn2" style="rounded=1;whiteSpace=wrap;html=1;" parent="1" vertex="1">
          <mxGeometry x="120" y="305" width="70" height="20" as="geometry" />
        </mxCell>
        <mxCell id="L3yQXywGLFafgFnH2-L4-36" style="edgeStyle=orthogonalEdgeStyle;curved=1;rounded=0;orthogonalLoop=1;jettySize=auto;html=1;entryX=0.5;entryY=0;entryDx=0;entryDy=0;startArrow=none;startFill=0;endArrow=classicThin;endFill=1;exitX=0;exitY=0.5;exitDx=0;exitDy=0;" parent="1" source="L3yQXywGLFafgFnH2-L4-24" target="L3yQXywGLFafgFnH2-L4-4" edge="1">
          <mxGeometry relative="1" as="geometry">
            <Array as="points">
              <mxPoint x="110" y="335" />
              <mxPoint x="110" y="360" />
              <mxPoint x="200" y="360" />
            </Array>
          </mxGeometry>
        </mxCell>
        <mxCell id="L3yQXywGLFafgFnH2-L4-24" value="thread vnN" style="rounded=1;whiteSpace=wrap;html=1;" parent="1" vertex="1">
          <mxGeometry x="120" y="325" width="70" height="20" as="geometry" />
        </mxCell>
        <mxCell id="L3yQXywGLFafgFnH2-L4-29" style="edgeStyle=orthogonalEdgeStyle;curved=1;rounded=0;orthogonalLoop=1;jettySize=auto;html=1;entryX=0.5;entryY=0;entryDx=0;entryDy=0;startArrow=none;startFill=0;endArrow=classicThin;endFill=1;exitX=0.5;exitY=1;exitDx=0;exitDy=0;" parent="1" source="L3yQXywGLFafgFnH2-L4-28" target="L3yQXywGLFafgFnH2-L4-4" edge="1">
          <mxGeometry relative="1" as="geometry" />
        </mxCell>
        <mxCell id="L3yQXywGLFafgFnH2-L4-30" style="edgeStyle=orthogonalEdgeStyle;curved=1;rounded=0;orthogonalLoop=1;jettySize=auto;html=1;exitX=0;exitY=0.5;exitDx=0;exitDy=0;entryX=1;entryY=0.5;entryDx=0;entryDy=0;startArrow=none;startFill=0;endArrow=classicThin;endFill=1;" parent="1" source="L3yQXywGLFafgFnH2-L4-28" target="L3yQXywGLFafgFnH2-L4-12" edge="1">
          <mxGeometry relative="1" as="geometry" />
        </mxCell>
        <mxCell id="L3yQXywGLFafgFnH2-L4-31" style="edgeStyle=orthogonalEdgeStyle;curved=1;rounded=0;orthogonalLoop=1;jettySize=auto;html=1;exitX=0;exitY=0.5;exitDx=0;exitDy=0;entryX=1;entryY=0.5;entryDx=0;entryDy=0;startArrow=none;startFill=0;endArrow=classicThin;endFill=1;" parent="1" source="L3yQXywGLFafgFnH2-L4-28" target="L3yQXywGLFafgFnH2-L4-23" edge="1">
          <mxGeometry relative="1" as="geometry" />
        </mxCell>
        <mxCell id="L3yQXywGLFafgFnH2-L4-32" style="edgeStyle=orthogonalEdgeStyle;curved=1;rounded=0;orthogonalLoop=1;jettySize=auto;html=1;exitX=0;exitY=0.5;exitDx=0;exitDy=0;entryX=1;entryY=0.5;entryDx=0;entryDy=0;startArrow=none;startFill=0;endArrow=classicThin;endFill=1;" parent="1" source="L3yQXywGLFafgFnH2-L4-28" target="L3yQXywGLFafgFnH2-L4-24" edge="1">
          <mxGeometry relative="1" as="geometry" />
        </mxCell>
        <mxCell id="L3yQXywGLFafgFnH2-L4-94" style="edgeStyle=orthogonalEdgeStyle;rounded=0;orthogonalLoop=1;jettySize=auto;html=1;exitX=0.5;exitY=0;exitDx=0;exitDy=0;entryX=0.25;entryY=1;entryDx=0;entryDy=0;startArrow=classicThin;startFill=1;endArrow=classicThin;endFill=1;" parent="1" source="L3yQXywGLFafgFnH2-L4-28" target="L3yQXywGLFafgFnH2-L4-90" edge="1">
          <mxGeometry relative="1" as="geometry" />
        </mxCell>
        <mxCell id="L3yQXywGLFafgFnH2-L4-28" value="client" style="rounded=1;whiteSpace=wrap;html=1;" parent="1" vertex="1">
          <mxGeometry x="230" y="305" width="70" height="20" as="geometry" />
        </mxCell>
        <mxCell id="L3yQXywGLFafgFnH2-L4-37" value="Graph Task" style="rounded=0;whiteSpace=wrap;html=1;verticalAlign=top;" parent="1" vertex="1">
          <mxGeometry x="80" y="440" width="740" height="40" as="geometry" />
        </mxCell>
        <mxCell id="L3yQXywGLFafgFnH2-L4-39" value="VMI Task" style="rounded=0;whiteSpace=wrap;html=1;verticalAlign=top;" parent="1" vertex="1">
          <mxGeometry x="330" y="260" width="240" height="140" as="geometry" />
        </mxCell>
        <mxCell id="L3yQXywGLFafgFnH2-L4-40" value="DB" style="rounded=0;whiteSpace=wrap;html=1;" parent="1" vertex="1">
          <mxGeometry x="430" y="370" width="40" height="20" as="geometry" />
        </mxCell>
        <mxCell id="L3yQXywGLFafgFnH2-L4-41" style="edgeStyle=orthogonalEdgeStyle;curved=1;rounded=0;orthogonalLoop=1;jettySize=auto;html=1;exitX=0;exitY=0.5;exitDx=0;exitDy=0;entryX=0.5;entryY=0;entryDx=0;entryDy=0;startArrow=none;startFill=0;endArrow=classicThin;endFill=1;" parent="1" source="L3yQXywGLFafgFnH2-L4-42" target="L3yQXywGLFafgFnH2-L4-40" edge="1">
          <mxGeometry relative="1" as="geometry">
            <Array as="points">
              <mxPoint x="340" y="295" />
              <mxPoint x="340" y="360" />
              <mxPoint x="450" y="360" />
            </Array>
          </mxGeometry>
        </mxCell>
        <mxCell id="L3yQXywGLFafgFnH2-L4-42" value="thread vmi1" style="rounded=1;whiteSpace=wrap;html=1;" parent="1" vertex="1">
          <mxGeometry x="370" y="285" width="70" height="20" as="geometry" />
        </mxCell>
        <mxCell id="L3yQXywGLFafgFnH2-L4-43" style="edgeStyle=orthogonalEdgeStyle;curved=1;rounded=0;orthogonalLoop=1;jettySize=auto;html=1;exitX=0;exitY=0.5;exitDx=0;exitDy=0;entryX=0.5;entryY=0;entryDx=0;entryDy=0;startArrow=none;startFill=0;endArrow=classicThin;endFill=1;" parent="1" source="L3yQXywGLFafgFnH2-L4-44" target="L3yQXywGLFafgFnH2-L4-40" edge="1">
          <mxGeometry relative="1" as="geometry">
            <Array as="points">
              <mxPoint x="350" y="315" />
              <mxPoint x="350" y="360" />
              <mxPoint x="450" y="360" />
            </Array>
          </mxGeometry>
        </mxCell>
        <mxCell id="L3yQXywGLFafgFnH2-L4-44" value="thread vmi2" style="rounded=1;whiteSpace=wrap;html=1;" parent="1" vertex="1">
          <mxGeometry x="370" y="305" width="70" height="20" as="geometry" />
        </mxCell>
        <mxCell id="L3yQXywGLFafgFnH2-L4-45" style="edgeStyle=orthogonalEdgeStyle;curved=1;rounded=0;orthogonalLoop=1;jettySize=auto;html=1;entryX=0.5;entryY=0;entryDx=0;entryDy=0;startArrow=none;startFill=0;endArrow=classicThin;endFill=1;exitX=0;exitY=0.5;exitDx=0;exitDy=0;" parent="1" source="L3yQXywGLFafgFnH2-L4-46" target="L3yQXywGLFafgFnH2-L4-40" edge="1">
          <mxGeometry relative="1" as="geometry">
            <Array as="points">
              <mxPoint x="360" y="335" />
              <mxPoint x="360" y="360" />
              <mxPoint x="450" y="360" />
            </Array>
          </mxGeometry>
        </mxCell>
        <mxCell id="L3yQXywGLFafgFnH2-L4-46" value="thread vmiN" style="rounded=1;whiteSpace=wrap;html=1;" parent="1" vertex="1">
          <mxGeometry x="370" y="325" width="70" height="20" as="geometry" />
        </mxCell>
        <mxCell id="L3yQXywGLFafgFnH2-L4-47" style="edgeStyle=orthogonalEdgeStyle;curved=1;rounded=0;orthogonalLoop=1;jettySize=auto;html=1;entryX=0.5;entryY=0;entryDx=0;entryDy=0;startArrow=none;startFill=0;endArrow=classicThin;endFill=1;exitX=0.5;exitY=1;exitDx=0;exitDy=0;" parent="1" source="L3yQXywGLFafgFnH2-L4-51" target="L3yQXywGLFafgFnH2-L4-40" edge="1">
          <mxGeometry relative="1" as="geometry" />
        </mxCell>
        <mxCell id="L3yQXywGLFafgFnH2-L4-48" style="edgeStyle=orthogonalEdgeStyle;curved=1;rounded=0;orthogonalLoop=1;jettySize=auto;html=1;exitX=0;exitY=0.5;exitDx=0;exitDy=0;entryX=1;entryY=0.5;entryDx=0;entryDy=0;startArrow=none;startFill=0;endArrow=classicThin;endFill=1;" parent="1" source="L3yQXywGLFafgFnH2-L4-51" target="L3yQXywGLFafgFnH2-L4-42" edge="1">
          <mxGeometry relative="1" as="geometry" />
        </mxCell>
        <mxCell id="L3yQXywGLFafgFnH2-L4-49" style="edgeStyle=orthogonalEdgeStyle;curved=1;rounded=0;orthogonalLoop=1;jettySize=auto;html=1;exitX=0;exitY=0.5;exitDx=0;exitDy=0;entryX=1;entryY=0.5;entryDx=0;entryDy=0;startArrow=none;startFill=0;endArrow=classicThin;endFill=1;" parent="1" source="L3yQXywGLFafgFnH2-L4-51" target="L3yQXywGLFafgFnH2-L4-44" edge="1">
          <mxGeometry relative="1" as="geometry" />
        </mxCell>
        <mxCell id="L3yQXywGLFafgFnH2-L4-50" style="edgeStyle=orthogonalEdgeStyle;curved=1;rounded=0;orthogonalLoop=1;jettySize=auto;html=1;exitX=0;exitY=0.5;exitDx=0;exitDy=0;entryX=1;entryY=0.5;entryDx=0;entryDy=0;startArrow=none;startFill=0;endArrow=classicThin;endFill=1;" parent="1" source="L3yQXywGLFafgFnH2-L4-51" target="L3yQXywGLFafgFnH2-L4-46" edge="1">
          <mxGeometry relative="1" as="geometry" />
        </mxCell>
        <mxCell id="L3yQXywGLFafgFnH2-L4-93" style="edgeStyle=orthogonalEdgeStyle;rounded=0;orthogonalLoop=1;jettySize=auto;html=1;exitX=0.5;exitY=0;exitDx=0;exitDy=0;entryX=0.588;entryY=1.021;entryDx=0;entryDy=0;entryPerimeter=0;startArrow=classicThin;startFill=1;endArrow=classicThin;endFill=1;" parent="1" source="L3yQXywGLFafgFnH2-L4-51" target="L3yQXywGLFafgFnH2-L4-90" edge="1">
          <mxGeometry relative="1" as="geometry" />
        </mxCell>
        <mxCell id="L3yQXywGLFafgFnH2-L4-51" value="client" style="rounded=1;whiteSpace=wrap;html=1;" parent="1" vertex="1">
          <mxGeometry x="480" y="305" width="70" height="20" as="geometry" />
        </mxCell>
        <mxCell id="L3yQXywGLFafgFnH2-L4-52" value="VN Task" style="rounded=0;whiteSpace=wrap;html=1;verticalAlign=top;" parent="1" vertex="1">
          <mxGeometry x="580" y="260" width="240" height="140" as="geometry" />
        </mxCell>
        <mxCell id="L3yQXywGLFafgFnH2-L4-53" value="DB" style="rounded=0;whiteSpace=wrap;html=1;" parent="1" vertex="1">
          <mxGeometry x="680" y="370" width="40" height="20" as="geometry" />
        </mxCell>
        <mxCell id="L3yQXywGLFafgFnH2-L4-54" style="edgeStyle=orthogonalEdgeStyle;curved=1;rounded=0;orthogonalLoop=1;jettySize=auto;html=1;exitX=0;exitY=0.5;exitDx=0;exitDy=0;entryX=0.5;entryY=0;entryDx=0;entryDy=0;startArrow=none;startFill=0;endArrow=classicThin;endFill=1;" parent="1" source="L3yQXywGLFafgFnH2-L4-55" target="L3yQXywGLFafgFnH2-L4-53" edge="1">
          <mxGeometry relative="1" as="geometry">
            <Array as="points">
              <mxPoint x="590" y="295" />
              <mxPoint x="590" y="360" />
              <mxPoint x="700" y="360" />
            </Array>
          </mxGeometry>
        </mxCell>
        <mxCell id="L3yQXywGLFafgFnH2-L4-55" value="thread vn1" style="rounded=1;whiteSpace=wrap;html=1;" parent="1" vertex="1">
          <mxGeometry x="620" y="285" width="70" height="20" as="geometry" />
        </mxCell>
        <mxCell id="L3yQXywGLFafgFnH2-L4-56" style="edgeStyle=orthogonalEdgeStyle;curved=1;rounded=0;orthogonalLoop=1;jettySize=auto;html=1;exitX=0;exitY=0.5;exitDx=0;exitDy=0;entryX=0.5;entryY=0;entryDx=0;entryDy=0;startArrow=none;startFill=0;endArrow=classicThin;endFill=1;" parent="1" source="L3yQXywGLFafgFnH2-L4-57" target="L3yQXywGLFafgFnH2-L4-53" edge="1">
          <mxGeometry relative="1" as="geometry">
            <Array as="points">
              <mxPoint x="600" y="315" />
              <mxPoint x="600" y="360" />
              <mxPoint x="700" y="360" />
            </Array>
          </mxGeometry>
        </mxCell>
        <mxCell id="L3yQXywGLFafgFnH2-L4-57" value="thread vn2" style="rounded=1;whiteSpace=wrap;html=1;" parent="1" vertex="1">
          <mxGeometry x="620" y="305" width="70" height="20" as="geometry" />
        </mxCell>
        <mxCell id="L3yQXywGLFafgFnH2-L4-58" style="edgeStyle=orthogonalEdgeStyle;curved=1;rounded=0;orthogonalLoop=1;jettySize=auto;html=1;entryX=0.5;entryY=0;entryDx=0;entryDy=0;startArrow=none;startFill=0;endArrow=classicThin;endFill=1;exitX=0;exitY=0.5;exitDx=0;exitDy=0;" parent="1" source="L3yQXywGLFafgFnH2-L4-59" target="L3yQXywGLFafgFnH2-L4-53" edge="1">
          <mxGeometry relative="1" as="geometry">
            <Array as="points">
              <mxPoint x="610" y="335" />
              <mxPoint x="610" y="360" />
              <mxPoint x="700" y="360" />
            </Array>
          </mxGeometry>
        </mxCell>
        <mxCell id="L3yQXywGLFafgFnH2-L4-59" value="thread vnN" style="rounded=1;whiteSpace=wrap;html=1;" parent="1" vertex="1">
          <mxGeometry x="620" y="325" width="70" height="20" as="geometry" />
        </mxCell>
        <mxCell id="L3yQXywGLFafgFnH2-L4-60" style="edgeStyle=orthogonalEdgeStyle;curved=1;rounded=0;orthogonalLoop=1;jettySize=auto;html=1;entryX=0.5;entryY=0;entryDx=0;entryDy=0;startArrow=none;startFill=0;endArrow=classicThin;endFill=1;exitX=0.5;exitY=1;exitDx=0;exitDy=0;" parent="1" source="L3yQXywGLFafgFnH2-L4-64" target="L3yQXywGLFafgFnH2-L4-53" edge="1">
          <mxGeometry relative="1" as="geometry" />
        </mxCell>
        <mxCell id="L3yQXywGLFafgFnH2-L4-61" style="edgeStyle=orthogonalEdgeStyle;curved=1;rounded=0;orthogonalLoop=1;jettySize=auto;html=1;exitX=0;exitY=0.5;exitDx=0;exitDy=0;entryX=1;entryY=0.5;entryDx=0;entryDy=0;startArrow=none;startFill=0;endArrow=classicThin;endFill=1;" parent="1" source="L3yQXywGLFafgFnH2-L4-64" target="L3yQXywGLFafgFnH2-L4-55" edge="1">
          <mxGeometry relative="1" as="geometry" />
        </mxCell>
        <mxCell id="L3yQXywGLFafgFnH2-L4-62" style="edgeStyle=orthogonalEdgeStyle;curved=1;rounded=0;orthogonalLoop=1;jettySize=auto;html=1;exitX=0;exitY=0.5;exitDx=0;exitDy=0;entryX=1;entryY=0.5;entryDx=0;entryDy=0;startArrow=none;startFill=0;endArrow=classicThin;endFill=1;" parent="1" source="L3yQXywGLFafgFnH2-L4-64" target="L3yQXywGLFafgFnH2-L4-57" edge="1">
          <mxGeometry relative="1" as="geometry" />
        </mxCell>
        <mxCell id="L3yQXywGLFafgFnH2-L4-63" style="edgeStyle=orthogonalEdgeStyle;curved=1;rounded=0;orthogonalLoop=1;jettySize=auto;html=1;exitX=0;exitY=0.5;exitDx=0;exitDy=0;entryX=1;entryY=0.5;entryDx=0;entryDy=0;startArrow=none;startFill=0;endArrow=classicThin;endFill=1;" parent="1" source="L3yQXywGLFafgFnH2-L4-64" target="L3yQXywGLFafgFnH2-L4-59" edge="1">
          <mxGeometry relative="1" as="geometry" />
        </mxCell>
        <mxCell id="L3yQXywGLFafgFnH2-L4-91" style="rounded=0;orthogonalLoop=1;jettySize=auto;html=1;exitX=0.5;exitY=0;exitDx=0;exitDy=0;entryX=0.925;entryY=0.998;entryDx=0;entryDy=0;entryPerimeter=0;startArrow=classicThin;startFill=1;endArrow=classicThin;endFill=1;edgeStyle=orthogonalEdgeStyle;" parent="1" source="L3yQXywGLFafgFnH2-L4-64" target="L3yQXywGLFafgFnH2-L4-90" edge="1">
          <mxGeometry relative="1" as="geometry" />
        </mxCell>
        <mxCell id="L3yQXywGLFafgFnH2-L4-64" value="client" style="rounded=1;whiteSpace=wrap;html=1;" parent="1" vertex="1">
          <mxGeometry x="730" y="305" width="70" height="20" as="geometry" />
        </mxCell>
        <mxCell id="L3yQXywGLFafgFnH2-L4-67" value="inet.0 Task" style="rounded=0;whiteSpace=wrap;html=1;verticalAlign=top;" parent="1" vertex="1">
          <mxGeometry x="850" y="260" width="100" height="120" as="geometry" />
        </mxCell>
        <mxCell id="L3yQXywGLFafgFnH2-L4-68" value="DB" style="rounded=0;whiteSpace=wrap;html=1;" parent="1" vertex="1">
          <mxGeometry x="880" y="350" width="40" height="20" as="geometry" />
        </mxCell>
        <mxCell id="L3yQXywGLFafgFnH2-L4-75" style="edgeStyle=orthogonalEdgeStyle;curved=1;rounded=0;orthogonalLoop=1;jettySize=auto;html=1;entryX=0.5;entryY=0;entryDx=0;entryDy=0;startArrow=none;startFill=0;endArrow=classicThin;endFill=1;exitX=0.5;exitY=1;exitDx=0;exitDy=0;" parent="1" source="L3yQXywGLFafgFnH2-L4-79" target="L3yQXywGLFafgFnH2-L4-68" edge="1">
          <mxGeometry relative="1" as="geometry" />
        </mxCell>
        <mxCell id="L3yQXywGLFafgFnH2-L4-101" style="edgeStyle=orthogonalEdgeStyle;curved=1;rounded=0;orthogonalLoop=1;jettySize=auto;html=1;exitX=0.5;exitY=0;exitDx=0;exitDy=0;entryX=0.155;entryY=1.017;entryDx=0;entryDy=0;entryPerimeter=0;startArrow=classicThin;startFill=1;endArrow=classicThin;endFill=1;" parent="1" source="L3yQXywGLFafgFnH2-L4-79" target="L3yQXywGLFafgFnH2-L4-100" edge="1">
          <mxGeometry relative="1" as="geometry" />
        </mxCell>
        <mxCell id="L3yQXywGLFafgFnH2-L4-79" value="client" style="rounded=1;whiteSpace=wrap;html=1;" parent="1" vertex="1">
          <mxGeometry x="865" y="305" width="70" height="20" as="geometry" />
        </mxCell>
        <mxCell id="L3yQXywGLFafgFnH2-L4-80" value="inet.6 Task" style="rounded=0;whiteSpace=wrap;html=1;verticalAlign=top;" parent="1" vertex="1">
          <mxGeometry x="960" y="260" width="100" height="120" as="geometry" />
        </mxCell>
        <mxCell id="L3yQXywGLFafgFnH2-L4-81" value="DB" style="rounded=0;whiteSpace=wrap;html=1;" parent="1" vertex="1">
          <mxGeometry x="990" y="350" width="40" height="20" as="geometry" />
        </mxCell>
        <mxCell id="L3yQXywGLFafgFnH2-L4-82" style="edgeStyle=orthogonalEdgeStyle;curved=1;rounded=0;orthogonalLoop=1;jettySize=auto;html=1;entryX=0.5;entryY=0;entryDx=0;entryDy=0;startArrow=none;startFill=0;endArrow=classicThin;endFill=1;exitX=0.5;exitY=1;exitDx=0;exitDy=0;" parent="1" source="L3yQXywGLFafgFnH2-L4-83" target="L3yQXywGLFafgFnH2-L4-81" edge="1">
          <mxGeometry relative="1" as="geometry" />
        </mxCell>
        <mxCell id="L3yQXywGLFafgFnH2-L4-102" style="edgeStyle=orthogonalEdgeStyle;curved=1;rounded=0;orthogonalLoop=1;jettySize=auto;html=1;exitX=0.5;exitY=0;exitDx=0;exitDy=0;entryX=0.5;entryY=1;entryDx=0;entryDy=0;startArrow=classicThin;startFill=1;endArrow=classicThin;endFill=1;" parent="1" source="L3yQXywGLFafgFnH2-L4-83" target="L3yQXywGLFafgFnH2-L4-100" edge="1">
          <mxGeometry relative="1" as="geometry" />
        </mxCell>
        <mxCell id="L3yQXywGLFafgFnH2-L4-83" value="client" style="rounded=1;whiteSpace=wrap;html=1;" parent="1" vertex="1">
          <mxGeometry x="975" y="305" width="70" height="20" as="geometry" />
        </mxCell>
        <mxCell id="L3yQXywGLFafgFnH2-L4-84" value="l2 Task" style="rounded=0;whiteSpace=wrap;html=1;verticalAlign=top;" parent="1" vertex="1">
          <mxGeometry x="1070" y="260" width="100" height="120" as="geometry" />
        </mxCell>
        <mxCell id="L3yQXywGLFafgFnH2-L4-85" value="DB" style="rounded=0;whiteSpace=wrap;html=1;" parent="1" vertex="1">
          <mxGeometry x="1100" y="350" width="40" height="20" as="geometry" />
        </mxCell>
        <mxCell id="L3yQXywGLFafgFnH2-L4-86" style="edgeStyle=orthogonalEdgeStyle;curved=1;rounded=0;orthogonalLoop=1;jettySize=auto;html=1;entryX=0.5;entryY=0;entryDx=0;entryDy=0;startArrow=none;startFill=0;endArrow=classicThin;endFill=1;exitX=0.5;exitY=1;exitDx=0;exitDy=0;" parent="1" source="L3yQXywGLFafgFnH2-L4-87" target="L3yQXywGLFafgFnH2-L4-85" edge="1">
          <mxGeometry relative="1" as="geometry" />
        </mxCell>
        <mxCell id="L3yQXywGLFafgFnH2-L4-103" style="edgeStyle=orthogonalEdgeStyle;curved=1;rounded=0;orthogonalLoop=1;jettySize=auto;html=1;exitX=0.5;exitY=0;exitDx=0;exitDy=0;entryX=0.845;entryY=0.989;entryDx=0;entryDy=0;entryPerimeter=0;startArrow=classicThin;startFill=1;endArrow=classicThin;endFill=1;" parent="1" source="L3yQXywGLFafgFnH2-L4-87" target="L3yQXywGLFafgFnH2-L4-100" edge="1">
          <mxGeometry relative="1" as="geometry" />
        </mxCell>
        <mxCell id="L3yQXywGLFafgFnH2-L4-87" value="client" style="rounded=1;whiteSpace=wrap;html=1;" parent="1" vertex="1">
          <mxGeometry x="1085" y="305" width="70" height="20" as="geometry" />
        </mxCell>
        <mxCell id="L3yQXywGLFafgFnH2-L4-104" style="edgeStyle=orthogonalEdgeStyle;curved=1;rounded=0;orthogonalLoop=1;jettySize=auto;html=1;exitX=1;exitY=0.5;exitDx=0;exitDy=0;entryX=0;entryY=0.5;entryDx=0;entryDy=0;startArrow=classicThin;startFill=1;endArrow=classicThin;endFill=1;" parent="1" source="L3yQXywGLFafgFnH2-L4-90" target="L3yQXywGLFafgFnH2-L4-100" edge="1">
          <mxGeometry relative="1" as="geometry" />
        </mxCell>
        <mxCell id="L3yQXywGLFafgFnH2-L4-90" value="&lt;span&gt;Resource Controller Interface&lt;/span&gt;" style="rounded=0;whiteSpace=wrap;html=1;" parent="1" vertex="1">
          <mxGeometry x="80" y="220" width="740" height="30" as="geometry" />
        </mxCell>
        <mxCell id="L3yQXywGLFafgFnH2-L4-65" style="edgeStyle=orthogonalEdgeStyle;curved=1;rounded=0;orthogonalLoop=1;jettySize=auto;html=1;entryX=0.5;entryY=0;entryDx=0;entryDy=0;startArrow=none;startFill=0;endArrow=classicThin;endFill=1;exitX=0.5;exitY=1;exitDx=0;exitDy=0;" parent="1" source="L3yQXywGLFafgFnH2-L4-40" target="L3yQXywGLFafgFnH2-L4-37" edge="1">
          <mxGeometry relative="1" as="geometry" />
        </mxCell>
        <mxCell id="L3yQXywGLFafgFnH2-L4-66" style="edgeStyle=orthogonalEdgeStyle;curved=1;rounded=0;orthogonalLoop=1;jettySize=auto;html=1;entryX=0.5;entryY=0;entryDx=0;entryDy=0;startArrow=none;startFill=0;endArrow=classicThin;endFill=1;exitX=0.5;exitY=1;exitDx=0;exitDy=0;" parent="1" source="L3yQXywGLFafgFnH2-L4-53" target="L3yQXywGLFafgFnH2-L4-37" edge="1">
          <mxGeometry relative="1" as="geometry" />
        </mxCell>
        <mxCell id="L3yQXywGLFafgFnH2-L4-100" value="Route Controller Interface" style="rounded=0;whiteSpace=wrap;html=1;" parent="1" vertex="1">
          <mxGeometry x="850" y="220" width="320" height="30" as="geometry" />
        </mxCell>
        <mxCell id="L3yQXywGLFafgFnH2-L4-106" style="edgeStyle=orthogonalEdgeStyle;curved=1;rounded=0;orthogonalLoop=1;jettySize=auto;html=1;startArrow=classicThin;startFill=1;endArrow=classicThin;endFill=1;" parent="1" source="L3yQXywGLFafgFnH2-L4-105" target="L3yQXywGLFafgFnH2-L4-100" edge="1">
          <mxGeometry relative="1" as="geometry" />
        </mxCell>
        <mxCell id="L3yQXywGLFafgFnH2-L4-105" value="Control GRPC Client" style="rounded=0;whiteSpace=wrap;html=1;" parent="1" vertex="1">
          <mxGeometry x="870" y="140" width="280" height="40" as="geometry" />
        </mxCell>
        <mxCell id="L3yQXywGLFafgFnH2-L4-113" style="edgeStyle=orthogonalEdgeStyle;curved=1;rounded=0;orthogonalLoop=1;jettySize=auto;html=1;startArrow=classicThin;startFill=1;endArrow=classicThin;endFill=1;" parent="1" source="L3yQXywGLFafgFnH2-L4-112" target="L3yQXywGLFafgFnH2-L4-105" edge="1">
          <mxGeometry relative="1" as="geometry" />
        </mxCell>
        <mxCell id="L3yQXywGLFafgFnH2-L4-112" value="Central Control Node" style="rounded=0;whiteSpace=wrap;html=1;" parent="1" vertex="1">
          <mxGeometry x="950" y="40" width="120" height="40" as="geometry" />
        </mxCell>
        <mxCell id="L3yQXywGLFafgFnH2-L4-119" style="edgeStyle=orthogonalEdgeStyle;rounded=0;orthogonalLoop=1;jettySize=auto;html=1;exitX=1;exitY=0.5;exitDx=0;exitDy=0;startArrow=classicThin;startFill=1;endArrow=classicThin;endFill=1;curved=1;entryX=1;entryY=0.5;entryDx=0;entryDy=0;" parent="1" source="L3yQXywGLFafgFnH2-L4-114" target="L3yQXywGLFafgFnH2-L4-100" edge="1">
          <mxGeometry relative="1" as="geometry">
            <mxPoint x="1270" y="360" as="targetPoint" />
            <Array as="points">
              <mxPoint x="1200" y="445" />
              <mxPoint x="1200" y="235" />
            </Array>
          </mxGeometry>
        </mxCell>
        <mxCell id="L3yQXywGLFafgFnH2-L4-114" value="Flow Module" style="rounded=0;whiteSpace=wrap;html=1;verticalAlign=top;" parent="1" vertex="1">
          <mxGeometry x="1060" y="430" width="120" height="30" as="geometry" />
        </mxCell>
        <mxCell id="L3yQXywGLFafgFnH2-L4-121" style="edgeStyle=orthogonalEdgeStyle;curved=1;rounded=0;orthogonalLoop=1;jettySize=auto;html=1;exitX=1;exitY=0.5;exitDx=0;exitDy=0;entryX=1;entryY=0.5;entryDx=0;entryDy=0;startArrow=classicThin;startFill=1;endArrow=classicThin;endFill=1;" parent="1" source="L3yQXywGLFafgFnH2-L4-115" target="L3yQXywGLFafgFnH2-L4-100" edge="1">
          <mxGeometry relative="1" as="geometry">
            <Array as="points">
              <mxPoint x="1220" y="475" />
              <mxPoint x="1220" y="235" />
            </Array>
          </mxGeometry>
        </mxCell>
        <mxCell id="L3yQXywGLFafgFnH2-L4-115" value="ACL Module" style="rounded=0;whiteSpace=wrap;html=1;verticalAlign=top;" parent="1" vertex="1">
          <mxGeometry x="1060" y="460" width="120" height="30" as="geometry" />
        </mxCell>
        <mxCell id="JefzvysrfDnG4BajkuWg-1" value="1" style="ellipse;whiteSpace=wrap;html=1;aspect=fixed;" vertex="1" parent="1">
          <mxGeometry x="490" y="100" width="20" height="20" as="geometry" />
        </mxCell>
        <mxCell id="JefzvysrfDnG4BajkuWg-6" value="2" style="ellipse;whiteSpace=wrap;html=1;aspect=fixed;" vertex="1" parent="1">
          <mxGeometry x="490" y="190" width="20" height="20" as="geometry" />
        </mxCell>
        <mxCell id="JefzvysrfDnG4BajkuWg-7" value="3" style="ellipse;whiteSpace=wrap;html=1;aspect=fixed;" vertex="1" parent="1">
          <mxGeometry x="270" y="265" width="20" height="20" as="geometry" />
        </mxCell>
        <mxCell id="JefzvysrfDnG4BajkuWg-8" value="3" style="ellipse;whiteSpace=wrap;html=1;aspect=fixed;" vertex="1" parent="1">
          <mxGeometry x="520" y="265" width="20" height="20" as="geometry" />
        </mxCell>
        <mxCell id="JefzvysrfDnG4BajkuWg-9" value="3" style="ellipse;whiteSpace=wrap;html=1;aspect=fixed;" vertex="1" parent="1">
          <mxGeometry x="770" y="265" width="20" height="20" as="geometry" />
        </mxCell>
        <mxCell id="JefzvysrfDnG4BajkuWg-10" value="4" style="ellipse;whiteSpace=wrap;html=1;aspect=fixed;" vertex="1" parent="1">
          <mxGeometry x="210" y="285" width="20" height="20" as="geometry" />
        </mxCell>
        <mxCell id="JefzvysrfDnG4BajkuWg-11" value="4" style="ellipse;whiteSpace=wrap;html=1;aspect=fixed;" vertex="1" parent="1">
          <mxGeometry x="460" y="285" width="20" height="20" as="geometry" />
        </mxCell>
        <mxCell id="JefzvysrfDnG4BajkuWg-12" value="4" style="ellipse;whiteSpace=wrap;html=1;aspect=fixed;" vertex="1" parent="1">
          <mxGeometry x="710" y="285" width="20" height="20" as="geometry" />
        </mxCell>
        <mxCell id="JefzvysrfDnG4BajkuWg-13" value="5" style="ellipse;whiteSpace=wrap;html=1;aspect=fixed;" vertex="1" parent="1">
          <mxGeometry x="130" y="370" width="20" height="20" as="geometry" />
        </mxCell>
        <mxCell id="JefzvysrfDnG4BajkuWg-14" value="5" style="ellipse;whiteSpace=wrap;html=1;aspect=fixed;" vertex="1" parent="1">
          <mxGeometry x="390" y="370" width="20" height="20" as="geometry" />
        </mxCell>
        <mxCell id="JefzvysrfDnG4BajkuWg-15" value="5" style="ellipse;whiteSpace=wrap;html=1;aspect=fixed;" vertex="1" parent="1">
          <mxGeometry x="645" y="370" width="20" height="20" as="geometry" />
        </mxCell>
        <mxCell id="JefzvysrfDnG4BajkuWg-16" value="6" style="ellipse;whiteSpace=wrap;html=1;aspect=fixed;" vertex="1" parent="1">
          <mxGeometry x="380" y="420" width="20" height="20" as="geometry" />
        </mxCell>
        <mxCell id="JefzvysrfDnG4BajkuWg-17" value="7" style="ellipse;whiteSpace=wrap;html=1;aspect=fixed;" vertex="1" parent="1">
          <mxGeometry x="250" y="345" width="20" height="20" as="geometry" />
        </mxCell>
        <mxCell id="JefzvysrfDnG4BajkuWg-18" value="7" style="ellipse;whiteSpace=wrap;html=1;aspect=fixed;" vertex="1" parent="1">
          <mxGeometry x="505" y="345" width="20" height="20" as="geometry" />
        </mxCell>
        <mxCell id="JefzvysrfDnG4BajkuWg-19" value="7" style="ellipse;whiteSpace=wrap;html=1;aspect=fixed;" vertex="1" parent="1">
          <mxGeometry x="750" y="345" width="20" height="20" as="geometry" />
        </mxCell>
        <mxCell id="JefzvysrfDnG4BajkuWg-20" value="8" style="ellipse;whiteSpace=wrap;html=1;aspect=fixed;" vertex="1" parent="1">
          <mxGeometry x="825" y="206" width="20" height="20" as="geometry" />
        </mxCell>
        <mxCell id="JefzvysrfDnG4BajkuWg-21" value="1" style="ellipse;whiteSpace=wrap;html=1;aspect=fixed;" vertex="1" parent="1">
          <mxGeometry x="980" y="100" width="20" height="20" as="geometry" />
        </mxCell>
        <mxCell id="JefzvysrfDnG4BajkuWg-22" value="2" style="ellipse;whiteSpace=wrap;html=1;aspect=fixed;" vertex="1" parent="1">
          <mxGeometry x="980" y="190" width="20" height="20" as="geometry" />
        </mxCell>
        <mxCell id="JefzvysrfDnG4BajkuWg-23" value="3" style="ellipse;whiteSpace=wrap;html=1;aspect=fixed;" vertex="1" parent="1">
          <mxGeometry x="910" y="285" width="20" height="20" as="geometry" />
        </mxCell>
        <mxCell id="JefzvysrfDnG4BajkuWg-24" value="3" style="ellipse;whiteSpace=wrap;html=1;aspect=fixed;" vertex="1" parent="1">
          <mxGeometry x="1020" y="285" width="20" height="20" as="geometry" />
        </mxCell>
        <mxCell id="JefzvysrfDnG4BajkuWg-25" value="3" style="ellipse;whiteSpace=wrap;html=1;aspect=fixed;" vertex="1" parent="1">
          <mxGeometry x="1130" y="285" width="20" height="20" as="geometry" />
        </mxCell>
        <mxCell id="JefzvysrfDnG4BajkuWg-26" value="4" style="ellipse;whiteSpace=wrap;html=1;aspect=fixed;" vertex="1" parent="1">
          <mxGeometry x="1130" y="330" width="20" height="20" as="geometry" />
        </mxCell>
        <mxCell id="JefzvysrfDnG4BajkuWg-27" value="4" style="ellipse;whiteSpace=wrap;html=1;aspect=fixed;" vertex="1" parent="1">
          <mxGeometry x="1020" y="330" width="20" height="20" as="geometry" />
        </mxCell>
        <mxCell id="JefzvysrfDnG4BajkuWg-28" value="4" style="ellipse;whiteSpace=wrap;html=1;aspect=fixed;" vertex="1" parent="1">
          <mxGeometry x="910" y="330" width="20" height="20" as="geometry" />
        </mxCell>
        <mxCell id="JefzvysrfDnG4BajkuWg-29" value="5" style="ellipse;whiteSpace=wrap;html=1;aspect=fixed;" vertex="1" parent="1">
          <mxGeometry x="1180" y="345" width="20" height="20" as="geometry" />
        </mxCell>
      </root>
    </mxGraphModel>
  </diagram>
</mxfile>
